<?xml version="1.0" standalone="no"?>
<!DOCTYPE svg PUBLIC "-//W3C//DTD SVG 20010904//EN"
 "http://www.w3.org/TR/2001/REC-SVG-20010904/DTD/svg10.dtd">
<svg version="1.0" xmlns="http://www.w3.org/2000/svg"
 width="401.000000pt" height="474.000000pt" viewBox="0 0 401.000000 474.000000"
 preserveAspectRatio="xMidYMid meet">

<g transform="translate(0.000000,474.000000) scale(0.100000,-0.100000)"
fill="#000000" stroke="none">
<path d="M0 2370 l0 -2370 2005 0 2005 0 0 2370 0 2370 -2005 0 -2005 0 0
-2370z m830 1852 c102 -65 271 -173 375 -240 l190 -121 611 -2 610 -2 45 28
c94 59 577 369 641 411 72 48 92 53 120 27 17 -15 18 -49 18 -666 0 -591 -2
-652 -17 -669 -20 -22 -51 -23 -81 -2 l-22 15 0 575 c0 316 -3 574 -6 574 -3
0 -135 -83 -293 -184 -157 -100 -305 -195 -328 -210 l-43 -26 -644 0 -645 0
-193 123 c-106 68 -254 163 -328 211 l-135 86 -5 -526 -5 -526 -24 -19 c-30
-24 -42 -24 -75 2 l-26 20 0 604 0 604 22 15 c12 9 29 16 38 16 9 0 99 -53
200 -118z m490 -1198 l80 -37 0 -140 0 -139 -32 6 c-54 11 -102 39 -125 75
-21 30 -23 46 -23 152 0 76 4 119 10 119 6 0 47 -16 90 -36z m1470 -85 c0
-147 -12 -174 -91 -208 -78 -34 -78 -35 -84 115 -5 107 -3 133 9 143 15 12
145 70 159 71 4 0 7 -55 7 -121z m-1187 -67 c28 -28 40 -51 44 -81 5 -40 4
-41 -31 -56 -20 -9 -57 -18 -81 -22 l-45 -6 0 122 0 121 38 -19 c20 -11 54
-37 75 -59z m917 -43 l0 -121 -47 7 c-73 11 -113 30 -113 55 0 35 37 96 77
127 33 26 73 52 81 53 1 0 2 -55 2 -121z m-1836 59 c13 -19 16 -60 16 -238 l1
-215 197 -125 c108 -68 401 -254 651 -414 l454 -290 41 24 c45 26 265 165 870
550 l401 256 3 176 2 177 27 20 c32 26 48 26 73 1 19 -19 20 -33 20 -223 0
-147 -3 -208 -12 -219 -7 -9 -40 -33 -73 -54 -33 -20 -82 -52 -110 -69 -27
-18 -151 -97 -275 -175 -249 -158 -453 -288 -729 -465 -102 -65 -198 -123
-213 -129 -37 -14 -8 -31 -568 329 -117 75 -320 205 -565 360 -154 97 -290
186 -302 198 -23 20 -23 24 -23 272 0 227 2 253 18 267 36 32 67 28 96 -14z
m1509 -482 c10 -26 -157 -231 -188 -231 -19 0 -124 116 -166 183 -38 59 -30
62 170 62 146 0 180 -3 184 -14z m416 -1317 c38 -8 58 -20 85 -50 46 -50 46
-79 2 -113 -41 -31 -56 -33 -56 -6 0 31 -17 24 -48 -22 -34 -50 -61 -124 -69
-190 -5 -40 -2 -50 20 -72 16 -16 37 -26 56 -26 39 0 81 -16 109 -42 58 -55 1
-94 -131 -91 -74 2 -95 7 -133 29 -43 25 -98 84 -125 134 -9 16 -13 56 -13
110 1 74 5 94 33 154 41 89 69 126 127 165 52 34 68 36 143 20z m568 -18 c45
-21 114 -100 144 -166 62 -134 -41 -378 -180 -426 -15 -6 -63 -8 -104 -6 -64
3 -83 8 -118 32 -45 32 -90 91 -120 161 -41 91 -16 245 51 309 25 24 34 27 67
22 31 -5 42 -2 63 17 45 42 102 76 129 76 14 0 45 -9 68 -19z m-1101 -20 c92
-41 157 -126 133 -174 -19 -36 -51 -67 -109 -104 -89 -58 -144 -72 -265 -70
-58 1 -105 0 -105 -3 0 -4 13 -18 28 -33 44 -42 145 -67 292 -71 69 -2 140 -9
158 -16 58 -22 65 -68 14 -89 -79 -32 -319 -35 -409 -6 -121 39 -228 152 -239
250 -8 64 24 152 74 207 36 40 108 87 187 121 54 23 173 17 241 -12z m-1197 1
c14 -3 35 -23 54 -53 16 -27 33 -49 37 -49 3 0 24 15 46 34 83 71 235 93 324
47 100 -51 155 -129 176 -246 13 -73 3 -206 -19 -232 -14 -18 -41 -16 -92 8
-35 17 -47 29 -61 65 -14 37 -15 58 -6 151 7 79 7 115 -2 133 -24 52 -103 65
-171 29 -93 -49 -146 -155 -160 -314 -13 -154 -30 -181 -97 -152 -18 8 -46 18
-62 23 -18 6 -36 22 -48 45 -17 34 -18 52 -11 273 9 247 13 266 53 250 8 -4
26 -9 39 -12z"/>
<path d="M3074 952 c-61 -48 -120 -113 -129 -142 -11 -34 3 -105 28 -142 34
-50 71 -49 128 1 65 57 103 144 97 223 -4 60 -17 81 -54 92 -16 5 -35 -4 -70
-32z"/>
<path d="M1873 954 c-57 -27 -116 -87 -111 -112 2 -9 14 -19 28 -22 50 -13
260 81 260 115 0 23 -42 45 -85 45 -22 -1 -63 -12 -92 -26z"/>
</g>
</svg>
